<svg t="1744614240454" class="icon" viewBox="0 0 1042 1024" version="1.1" xmlns="http://www.w3.org/2000/svg" p-id="17854" width="200" height="200"><path d="M19.959798 984.080404h34.929646a19.959798 19.959798 0 1 1 0 39.919596H19.959798a19.959798 19.959798 0 0 1 0-39.919596z m920.645672 0h82.334166a19.959798 19.959798 0 0 1 0 39.919596h-82.334166a19.959798 19.959798 0 0 1 0-39.919596z m-798.391911 0h721.047695a19.959798 19.959798 0 0 1 0 39.919596H142.213559a19.959798 19.959798 0 0 1 0-39.919596z" fill="#261D50" p-id="17855"></path><path d="M378.113419 87.935384l17.377499-9.593178h64.869343v284.190096l40.480965 94.322519h40.792836l40.530865-94.322519V78.342206h64.869342l79.352671 43.786807a76.096729 76.096729 0 0 1 38.347762 65.979606l0.598794 66.491076 60.266114 75.298338v252.142145l-111.899616 223.574685a220.59319 220.59319 0 0 1-198.35049 122.453359 223.163014 223.163014 0 0 1-189.218883-106.036426l-109.180094-178.502966V483.663325l60.266114-121.605068 0.56137-173.937163m14.246305-44.235902a75.884656 75.884656 0 0 1 24.101456-21.756179l16.641481-9.181507" fill="#FFFFFF" p-id="17856"></path><path d="M448.459231 78.342206h152.168509v385.685668H448.459231z" fill="#FFFFFF" p-id="17857"></path><path d="M524.780508 146.642139a29.939697 29.939697 0 0 1 29.939697 29.939697v123.426399a29.939697 29.939697 0 0 1-59.879394 0v-123.426399a29.939697 29.939697 0 0 1 29.939697-29.939697z" fill="#FF6660" p-id="17858"></path><path d="M523.233624 721.297192v-264.467321h19.460803l40.456015-94.322519v-285.674605h64.869342l79.352671 45.296266a76.096729 76.096729 0 0 1 38.347762 65.979606l0.598794 66.491076-0.598794 277.466139C727.9463 607.613669 607.750892 721.297192 523.233624 721.297192z" fill="#72C69C" p-id="17859"></path><path d="M522.285533 722.95635c-76.695523 0-203.465189-117.263812-243.472108-182.706999l-0.598794-178.191094 0.598794-173.937163a76.096729 76.096729 0 0 1 38.347762-65.979607l79.340196-45.296266h64.869342v285.674606l40.480965 94.322519h21.344509c0.037425 115.018335-0.910666 211.19961-0.910666 266.114004z" fill="#00B7D6" p-id="17860"></path><path d="M266.163903 360.074752h24.101456v381.169763h-24.101456z" fill="#1E2148" p-id="17861"></path><path d="M754.293233 257.63109h24.101455v444.442322h-24.101455z" fill="#20224A" p-id="17862"></path><path d="M510.234805 462.530889h24.101456V721.671438h-24.101456z" fill="#22234C" p-id="17863"></path><path d="M520.252129 733.709691c-41.603703 0-84.155497-16.354559-126.445319-48.652007C352.627252 653.683377 310.36238 606.191533 268.234732 543.904489l19.959798-13.497813c80.413035 118.92297 158.430895 179.214034 232.032649 179.214034s154.176963-61.126881 239.268076-181.721484l19.772675 13.89701c-44.472924 63.010587-88.484278 111.026375-130.824 142.799878-43.512359 32.596845-86.625522 49.113577-128.191801 49.113577z" fill="#261D50" p-id="17864"></path><path d="M443.943327 78.342206v-36.177133a30.12682 30.12682 0 0 1 30.12682-30.12682h96.418298a30.12682 30.12682 0 0 1 30.12682 30.12682v36.177133z" fill="#FDD838" p-id="17865"></path><path d="M612.678467 90.392934H431.892599V42.190023A42.227447 42.227447 0 0 1 474.070147 0h96.418298a42.227447 42.227447 0 0 1 42.190022 42.190023z m-156.684412-24.101456h132.582957V42.190023a18.101042 18.101042 0 0 0-18.076092-18.076092h-96.430773a18.101042 18.101042 0 0 0-18.076092 18.076092z" fill="#261D50" p-id="17866"></path><path d="M522.09841 341.99866c-20.770665 0-37.661643-18.837059-37.661643-41.990425v-123.426399c0-23.153365 16.890979-41.990425 37.661643-41.990425s37.611744 18.849534 37.611744 41.990425v123.426399c0 23.090991-16.841079 41.990425-37.611744 41.990425z m0-183.305793c-7.347701 0-13.560188 8.195992-13.560187 17.888969v123.426399c0 9.692977 6.237437 17.888969 13.560187 17.888969s13.560188-8.195992 13.560188-17.888969v-123.426399c0-9.692977-6.212487-17.888969-13.560188-17.888969z" fill="#261F4F" p-id="17867"></path><path d="M516.372443 942.963221a235.288591 235.288591 0 0 1-199.498179-111.774867l-111.026375-181.422087V483.688274l60.27859-121.617542 0.636218-171.205166a12.050728 12.050728 0 0 1 12.050728-12.013303 12.050728 12.050728 0 0 1 12.013303 12.100627l-0.573844 176.793909-60.253639 121.580118v153.653018l107.433611 175.633746a211.024962 211.024962 0 0 0 178.927112 100.248084 208.604836 208.604836 0 0 0 187.5722-115.791777l110.627179-221.017335V336.983761l-60.241165-75.248438-0.636218-70.657684a64.12085 64.12085 0 0 0-32.197649-55.588037l-76.558299-42.252397h-49.724846v274.621868l-44.572724 103.890747h-56.685826l-44.585198-103.890747V93.237205h-49.749796l-14.657976 8.096193a12.05447 12.05447 0 0 1-11.651532-21.107486l20.097021-11.090162h80.076214v293.770798l36.339307 84.741817h24.949747l36.351782-84.741817V69.13575h80.063738l82.221892 45.371115a88.234781 88.234781 0 0 1 44.423025 76.4585l0.56137 62.212195 60.303539 75.348236v259.215399l-113.184529 226.107084a232.581544 232.581544 0 0 1-209.128781 129.114942z m-223.300237-784.18303a12.050728 12.050728 0 0 1-9.805251-19.061607 87.935384 87.935384 0 0 1 27.931242-25.199244l0.149698-0.087324 16.641482-9.181507a12.05447 12.05447 0 1 1 11.651532 21.107486l-16.566632 9.144082a63.846403 63.846403 0 0 0-20.196821 18.263215 12.038253 12.038253 0 0 1-9.8302 5.014899z" fill="#261D50" p-id="17868"></path></svg>